HIERARCHY
ROOT hip
{
	OFFSET 0.000000 0.000000 0.000000 
	CHANNELS 6 Xposition Yposition Zposition Xrotation Zrotation Yrotation
	JOINT abdomen
	{
		OFFSET 0.000000 3.402643 0.000000 
		CHANNELS 3 Xrotation Zrotation Yrotation
		JOINT chest
		{
			OFFSET 0.000000 8.438565 -0.680529 
			CHANNELS 3 Xrotation Zrotation Yrotation
			JOINT neck
			{
				OFFSET 0.000000 10.207942 -0.272212 
				CHANNELS 3 Xrotation Zrotation Yrotation
				JOINT head
				{
					OFFSET 0.000000 3.130431 0.000000 
					CHANNELS 3 Xrotation Zrotation Yrotation
					End Site
					{
						OFFSET 0.000000 3.130435 0.000000 
					}
				}
			}
			JOINT lCollar
			{
				OFFSET 3.470700 6.669187 -0.816635 
				CHANNELS 3 Yrotation Zrotation Xrotation
				JOINT lShldr
				{
					OFFSET 3.198488 0.000000 0.000000 
					CHANNELS 3 Zrotation Yrotation Xrotation
					JOINT lForeArm
					{
						OFFSET 10.139888 0.000000 0.000000 
						CHANNELS 3 Yrotation Zrotation Xrotation
						JOINT lHand
						{
							OFFSET 8.370511 0.000000 0.000000 
							CHANNELS 3 Zrotation Yrotation Xrotation
							End Site
							{
								OFFSET 4.083176 0.000000 0.000000 
							}
						}
					}
				}
			}
			JOINT rCollar
			{
				OFFSET -3.470700 6.669187 -0.816635 
				CHANNELS 3 Yrotation Zrotation Xrotation
				JOINT rShldr
				{
					OFFSET -3.198488 0.000000 0.000000 
					CHANNELS 3 Zrotation Yrotation Xrotation
					JOINT rForeArm
					{
						OFFSET -10.139888 0.000000 0.000000 
						CHANNELS 3 Yrotation Zrotation Xrotation
						JOINT rHand
						{
							OFFSET -8.370511 0.000000 0.000000 
							CHANNELS 3 Zrotation Yrotation Xrotation
							End Site
							{
								OFFSET -4.083176 0.000000 0.000000 
							}
						}
					}
				}
			}
		}
	}
	JOINT lThigh
	{
		OFFSET 5.308129 -1.633274 1.361059 
		CHANNELS 3 Xrotation Zrotation Yrotation
		JOINT lShin
		{
			OFFSET -2.041588 -20.007561 0.000000 
			CHANNELS 3 Xrotation Zrotation Yrotation
			JOINT lFoot
			{
				OFFSET 0.000000 -19.190928 -1.224953 
				CHANNELS 3 Xrotation Yrotation Zrotation
				End Site
				{
					OFFSET 0.000000 -2.449906 4.627600 
				}
			}
		}
	}
	JOINT rThigh
	{
		OFFSET -5.308129 -1.633274 1.361059 
		CHANNELS 3 Xrotation Zrotation Yrotation
		JOINT rShin
		{
			OFFSET 2.041588 -20.007561 0.000000 
			CHANNELS 3 Xrotation Zrotation Yrotation
			JOINT rFoot
			{
				OFFSET 0.000000 -19.190928 -1.224953 
				CHANNELS 3 Xrotation Yrotation Zrotation
				End Site
				{
					OFFSET 0.000000 -2.449906 4.627600 
				}
			}
		}
	}
}
MOTION
Frames: 6
Frame Time: 0.011111
11.986589 52.459385 67.385628 176.255066 178.495712 -5.412434 6.047323 0.467767 2.551569 -3.953243 4.473601 0.900848 -15.309720 -6.591508 -1.263303 30.440063 7.975324 -1.362508 12.413046 -14.960623 4.251975 -69.973991 -31.756193 24.865862 -51.031799 8.259808 7.609381 6.992188 16.005859 -58.581291 -6.427974 8.898234 2.089853 67.478981 25.507071 22.157507 56.083633 -9.295147 9.708838 -7.001954 -15.996095 57.294926 -23.392252 3.631487 3.136224 30.401852 -5.254227 -2.238619 -9.148153 -7.421577 -1.988064 0.765622 0.193847 0.108514 51.211254 4.676188 3.933623 12.278167 -4.276710 0.577641 
11.937798 52.517246 66.855797 176.352646 178.912216 -5.333842 6.117007 0.048568 2.296246 -3.943557 4.424830 0.842835 -15.699277 -6.570323 -1.167022 31.028831 8.006051 -1.165194 12.413046 -14.960623 4.251975 -69.750359 -31.873642 25.214260 -51.125870 8.281205 7.649008 6.992188 16.005859 -58.825428 -6.427974 8.898234 2.089853 67.535347 25.365337 22.820539 55.745251 -9.241631 9.569421 -7.001954 -15.996095 56.572269 -22.214607 3.114780 3.738930 29.824923 -5.258988 -2.177329 -9.276766 -7.866255 -2.106987 -1.065922 -0.484479 -0.087763 53.858089 4.587759 4.104719 15.007461 -6.305929 0.968246 
11.906834 52.572922 66.379135 176.412018 179.603668 -5.367358 6.220722 -0.794543 1.944263 -3.854445 4.824367 0.763823 -16.147051 -6.820910 -0.982620 31.359663 8.129629 -0.884828 12.413046 -14.960623 4.251975 -69.855713 -32.054996 25.664543 -51.420097 8.354849 7.773796 6.992188 16.005859 -58.688713 -6.427974 8.898234 2.089853 67.265732 25.582834 23.333382 55.606934 -9.215595 9.506947 -7.001954 -15.996095 56.337891 -21.105482 2.313012 4.244241 29.179182 -5.258672 -2.140332 -9.363054 -8.093822 -2.181911 -3.226554 -1.462151 -0.216533 56.653942 4.433472 4.302739 17.280508 -8.422320 1.553033 
11.879935 52.615768 65.919983 176.577545 -179.414063 -5.365289 6.359073 -2.087480 1.793110 -3.912184 5.274438 0.741252 -16.003283 -6.680197 -1.019274 31.058680 7.819335 -1.015642 12.413046 -14.960623 4.251975 -69.696815 -32.091774 26.526199 -51.786991 8.438479 7.920378 6.992188 16.005859 -58.317616 -6.427974 8.898234 2.089853 67.085609 25.587309 23.320950 55.459000 -9.191353 9.452865 -7.001954 -15.996095 56.083984 -19.917519 1.112700 4.499678 28.700171 -5.268250 -2.093968 -9.718889 -8.166744 -2.211584 -5.343187 -2.798251 -0.361773 59.269260 4.306509 4.482891 19.048616 -10.133321 2.153418 
11.851161 52.658932 65.425812 176.856812 -179.176376 -4.835299 6.593793 -2.342808 1.357441 -3.902185 5.352935 0.625304 -15.757680 -6.432296 -1.093063 30.791473 7.375981 -1.199175 12.413046 -14.960623 4.251975 -69.444908 -32.134197 27.181046 -52.080437 8.502337 8.041092 6.992188 16.005859 -58.190662 -6.427974 8.898234 2.089853 67.141548 25.543669 23.186972 55.320713 -9.164473 9.389215 -7.001954 -15.996095 55.673828 -18.700817 0.576158 4.427547 28.220528 -5.279130 -2.038200 -9.905336 -8.648704 -2.334534 -6.908012 -3.297734 -1.065426 61.627533 4.189418 4.653464 20.049677 -10.328920 2.247756 
11.807059 52.684265 64.956657 176.780304 -179.193436 -5.109366 6.509690 -2.140527 1.214561 -3.892422 5.333515 0.577299 -15.914127 -6.653366 -0.870413 31.202858 7.382508 -0.757390 12.413046 -14.960623 4.251975 -69.478554 -32.188274 27.138937 -52.332893 8.560037 8.138685 6.992188 16.005859 -58.122307 -6.427974 8.898234 2.089853 67.041069 25.541822 24.032003 55.320713 -9.164473 9.389215 -7.001954 -15.996095 55.429691 -17.974310 0.565920 4.765952 27.823366 -5.273370 -2.011456 -10.140441 -8.809594 -2.405275 -8.901357 -3.484298 -1.143898 63.916103 4.062575 4.801854 19.977724 -8.888143 1.733283 
